PathFileType	4	(X/Y/Z)	C:\Users\WrightLab\Desktop\Jo\P4V136.trc
DataRate	CameraRate	NumFrames	NumMarkers	Units	OrigDataRate	OrigDataStartFrame	OrigNumFrames
100.00	100.00	       13	19	mm	100.00	424	       565
Frame#	Time	Headset_Front			Headset_Back			Headset_Left			Headset_Right			Left_Shoulder			Right_Shoulder			Sternum			C7			Left Elbow			Right Elbow			Left Wrist			Right Wrist			Left ASIS			Right ASIS			S2			Left Knee			Right Knee			Left Ankle			Right Ankle			
		X1	Y1	Z1	X2	Y2	Z2	X3	Y3	Z3	X4	Y4	Z4	X5	Y5	Z5	X6	Y6	Z6	X7	Y7	Z7	X8	Y8	Z8	X9	Y9	Z9	X10	Y10	Z10	X11	Y11	Z11	X12	Y12	Z12	X13	Y13	Z13	X14	Y14	Z14	X15	Y15	Z15	X16	Y16	Z16	X17	Y17	Z17	X18	Y18	Z18	X19	Y19	Z19	

424	4.230	44.77155	1738.67078	2032.98865	-8.78171	1755.47986	1895.33521							270.41727	1567.55298	1910.35449	-6.25319	1573.58777	1787.43323	97.02396	1511.96228	1956.86194				396.67462	1233.20740	2021.77112	-142.81610	1230.96619	1719.32727	320.36761	1030.80530	2246.66797	-205.75520	958.46283	1849.44080	256.58096	1077.17627	1984.52502	-64.23275	1070.48267	1893.85681				276.14093	587.53442	1934.31848	-116.28076	620.66168	2008.39392	266.44278	98.57450	1785.47107	-80.27782	110.25259	2044.90381	
425	4.240	41.10311	1738.09753	2038.82581	-12.78796	1754.32959	1901.87512							266.60544	1566.96118	1916.84192	-10.33278	1572.50574	1794.68921	93.11874	1511.02380	1963.46350				392.10535	1233.20410	2030.81750	-145.94987	1229.88110	1726.35791	314.52533	1032.60901	2255.28345	-206.53770	955.99805	1853.08594	253.28311	1077.03564	1992.59119	-67.06043	1070.19604	1901.33862				274.91077	587.38324	1937.16040	-117.55620	617.71594	2012.95032	266.22385	98.45155	1785.96460	-92.69572	110.56029	2062.06299	
426	4.250	36.65653	1737.14453	2045.65222	-16.76443	1753.65857	1908.74597							262.89624	1566.20886	1922.92371	-13.95660	1571.84167	1801.34924	89.96766	1509.80933	1969.13330				387.03864	1232.48352	2036.86719	-149.02841	1228.75623	1732.79602	308.09271	1034.79492	2264.69751	-208.58435	953.69080	1857.95093	250.30791	1075.34448	1997.73706	-70.27639	1069.30945	1909.90979				273.79465	586.34283	1939.41223	-118.62887	614.60223	2017.28430	266.13712	98.51375	1786.06921	-104.54771	109.67922	2081.51782	
427	4.260	32.44111	1736.94519	2052.36621	-20.90244	1752.86694	1915.20667							259.10745	1565.55591	1930.24438	-18.68380	1570.55298	1809.41406	85.65798	1508.51599	1976.20618				382.71060	1231.34082	2045.58875	-152.33684	1227.85498	1739.03589	301.95963	1037.29150	2274.54517	-210.68770	951.89435	1863.21399	247.58212	1074.05420	2003.95728	-73.55332	1067.70117	1916.99109				272.01825	587.08173	1943.90833	-119.23631	611.88727	2021.01294	266.08578	98.64610	1786.18933	-115.71229	109.68434	2102.73486	
428	4.270	28.39519	1735.43555	2058.71875	-24.88202	1751.70203	1921.60486							255.15302	1564.53113	1936.74658	-22.97929	1569.11804	1816.46423	81.84090	1507.35876	1983.23792				377.56335	1230.34680	2050.64355	-155.82672	1226.28772	1745.82947	296.30020	1038.41931	2282.68970	-212.36778	948.96338	1868.01575	243.79233	1074.09753	2013.16687	-77.06573	1066.34497	1923.71814				270.12076	586.85461	1947.94580	-120.35261	609.29163	2026.55310	266.00354	98.76994	1786.03894	-126.14356	110.57153	2121.28125	
429	4.280	23.96250	1734.85925	2065.19702	-29.38542	1750.90076	1928.50037							250.82150	1564.38220	1943.72620	-27.14672	1568.08984	1823.21179	77.91286	1506.74377	1990.09033				372.82144	1229.22913	2058.22681	-159.34625	1224.51379	1752.97009	290.15445	1039.47839	2291.31689	-215.19646	947.59576	1873.41504	240.63661	1073.21191	2019.73828	-80.71804	1064.76465	1932.00781				268.69415	586.23877	1951.42126	-122.00832	606.59863	2032.09558	265.96484	98.88437	1786.13831	-134.86919	111.27103	2135.50146	
430	4.290	19.33868	1733.99011	2072.45825	-33.97243	1749.24683	1935.18164							247.14967	1562.13513	1949.53162	-32.30340	1567.11755	1830.83838	74.13747	1505.20178	1996.43848				367.59772	1228.15747	2064.87671	-163.06534	1222.87012	1759.51392	284.51779	1040.14954	2298.62134	-217.96581	945.12036	1879.10498	237.16200	1071.64063	2025.86072	-84.00201	1063.82056	1940.38281				267.01108	585.65814	1955.07373	-124.23759	604.44672	2037.45911	265.41309	99.36660	1786.19507	-142.68434	111.69258	2151.91479	
431	4.300	15.26183	1732.74609	2077.98389	-38.32881	1748.28674	1941.83765							242.24629	1561.89282	1956.81091	-36.05689	1564.43799	1836.05481	69.60242	1504.01208	2003.88464				362.42786	1227.25977	2070.87329	-166.98703	1221.29858	1765.98083	278.08447	1040.53162	2306.02515	-220.65405	942.09149	1884.36169	234.11192	1070.54761	2032.22253	-86.92793	1062.55847	1948.33362				265.18710	584.73700	1959.17822	-127.30479	602.47223	2044.06824	265.19769	99.78352	1786.82239	-149.52939	112.08499	2165.33350	
432	4.310	10.66141	1731.99780	2084.68384	-43.31062	1747.25867	1948.81274							237.92773	1560.42859	1962.53540	-41.42064	1563.31934	1843.59692	65.18962	1503.18213	2010.91882				357.41592	1225.87585	2078.17603	-170.87567	1219.38782	1772.39563	272.24283	1040.82922	2312.70801	-223.61658	939.94708	1889.71106	230.92578	1069.76538	2039.79333	-90.51656	1061.07544	1955.65503				263.18478	584.67603	1963.66907	-130.89856	601.04749	2051.62207	265.13144	99.91694	1786.95459	-154.78696	111.44542	2172.74805	
433	4.320	6.02156	1731.05493	2091.11108	-47.29171	1746.25183	1954.36975							232.95950	1559.87195	1969.47888	-46.75145	1562.24951	1850.25427	60.59067	1502.08142	2017.53137				352.80032	1225.37402	2085.55200	-174.69193	1217.66614	1779.09863	265.93774	1040.59912	2319.49902	-226.75536	936.88544	1895.92224	227.83948	1068.60229	2046.40784	-94.40429	1059.59778	1962.79602				260.82352	584.08478	1969.37524	-134.99826	600.54163	2059.25806	264.94412	100.48844	1787.35388	-159.78261	110.86876	2181.75928	
434	4.330	1.14199	1730.40601	2097.63940	-52.55274	1745.50317	1961.19421							227.95117	1559.40271	1976.02441	-51.86594	1559.84888	1857.41553	55.81426	1500.53735	2024.21057				347.59396	1224.31909	2090.43677	-178.95049	1215.62061	1786.26990	260.65332	1039.75183	2325.00464	-229.84047	934.83630	1901.19849	224.06439	1067.12732	2052.92310	-98.16932	1058.16113	1970.62878				259.30731	582.67303	1973.03198	-139.58591	599.66547	2068.23486	264.50287	101.23347	1786.42847	-163.29410	107.65419	2191.45825	
435	4.340	-4.05320	1729.55273	2104.54126	-57.86733	1744.47070	1967.18164							223.33218	1557.85388	1981.78394	-56.75884	1558.29907	1864.24353	50.76392	1499.51831	2030.86121				342.89343	1223.14478	2096.71289	-183.32988	1213.65601	1793.63770	254.79156	1038.91101	2331.12061	-233.22908	931.79059	1907.58154	219.72546	1066.13708	2059.61108	-101.95399	1057.18005	1978.49951				256.72824	581.57135	1976.97290	-144.50844	600.07373	2076.55908	264.34717	101.57344	1786.60962	-167.51086	107.71102	2197.92114	
436	4.350	-9.13696	1729.04309	2110.58032	-63.46916	1743.23584	1974.00037							218.37981	1557.22058	1987.95996	-61.55375	1557.04138	1871.05444	45.90514	1498.53711	2037.42224				338.23193	1222.38916	2103.79541	-187.76700	1211.61719	1800.98938	249.52145	1037.64856	2336.66553	-236.95032	929.25745	1914.28821	216.43231	1064.53882	2065.13232	-106.12410	1055.93787	1986.69385				253.17720	582.55688	1983.79602	-149.16193	599.89386	2085.82617	264.54678	102.54514	1788.39832	-170.24234	105.94478	2201.71118	
